<svg width="186" height="32" fill="none" xmlns="http://www.w3.org/2000/svg"><g clip-path="url(#a)" fill="#DC6A30"><path d="M10.318 32c-.469-.085-.944-.144-1.408-.26-1.173-.29-2.229-.802-3.032-1.74-.612-.712-.864-1.537-.777-2.484.178-2.022.97-3.82 2.013-5.52.999-1.629 2.233-3.065 3.754-4.234 1.605-1.233 3.364-2.086 5.449-2.004 1.418.056 2.712.535 3.881 1.312 3.258 2.163 5.398 5.165 6.463 8.913.21.751.29 1.533.238 2.311-.08 1.15-.816 1.953-1.747 2.569-.957.634-2.025.954-3.159 1.077-.101.011-.202.04-.303.06h-1.252c-1.005-.25-2.011-.493-3.015-.748-.82-.209-1.642-.267-2.471-.079-1.132.263-2.257.548-3.386.825L10.319 32ZM32.03 15.622c-.183.615-.31 1.253-.563 1.837-.604 1.398-1.56 2.487-3.029 3.021-1.94.705-3.668-.346-3.965-2.39-.34-2.34 1.346-5.185 3.555-6 1.888-.696 3.615.313 3.945 2.299.016.058.035.116.06.171l-.003 1.062Z"/><path d="M11.568 32c1.128-.276 2.254-.562 3.385-.824.827-.191 1.652-.132 2.472.078 1.003.255 2.01.5 3.015.748L11.568 32ZM15.125 6.79c-.04 2.161-.367 3.85-1.309 5.376-.6.976-1.382 1.763-2.52 2.073-1.44.391-2.619-.124-3.592-1.174-1.054-1.136-1.565-2.534-1.806-4.038-.348-2.18-.142-4.294.843-6.3.393-.794.916-1.487 1.638-2.016 1.41-1.034 3.138-.935 4.43.245 1.139 1.039 1.734 2.374 2.043 3.845.163.782.22 1.584.273 1.988ZM26.372 6.794c-.04 2.16-.367 3.85-1.31 5.376-.602.975-1.384 1.761-2.521 2.07-1.442.392-2.617-.129-3.593-1.174s-1.49-2.348-1.753-3.732c-.387-2.067-.261-4.102.546-6.068.414-1.008.995-1.9 1.888-2.554 1.41-1.035 3.137-.932 4.43.249 1.137 1.04 1.732 2.375 2.04 3.846.163.78.221 1.582.273 1.987ZM.032 15.234c.042-1.228.325-2.213 1.268-2.864 1.097-.753 2.262-.66 3.327 0 2.064 1.275 3.124 3.148 2.963 5.613-.09 1.404-1.053 2.488-2.337 2.683-1.07.16-2.023-.192-2.85-.845-1.52-1.202-2.248-2.815-2.37-4.587Z"/></g><path d="M46.911 27c-.58 0-.99-.12-1.23-.36-.22-.24-.33-.62-.33-1.14V8.13c0-.52.12-.9.36-1.14.24-.26.64-.39 1.2-.39h7.35c2.8 0 4.86.59 6.18 1.77 1.32 1.18 1.98 2.94 1.98 5.28 0 2.32-.66 4.07-1.98 5.25-1.3 1.16-3.36 1.74-6.18 1.74h-2.85v4.86c0 .52-.12.9-.36 1.14-.24.24-.65.36-1.23.36h-2.91Zm6.87-10.71c.82 0 1.45-.22 1.89-.66.46-.44.69-1.1.69-1.98 0-.9-.23-1.57-.69-2.01-.44-.44-1.07-.66-1.89-.66h-2.37v5.31h2.37Zm16.604 11.16c-1.68 0-3.18-.28-4.5-.84-1.3-.56-2.33-1.4-3.09-2.52-.76-1.12-1.14-2.49-1.14-4.11 0-2.54.72-4.48 2.16-5.82 1.44-1.34 3.51-2.01 6.21-2.01 2.64 0 4.64.66 6 1.98 1.38 1.3 2.07 3.11 2.07 5.43 0 1-.44 1.5-1.32 1.5h-9.42c0 .86.32 1.52.96 1.98.66.46 1.65.69 2.97.69.82 0 1.5-.07 2.04-.21a8.51 8.51 0 0 0 1.68-.69c.24-.1.4-.15.48-.15.18 0 .33.12.45.36l1.02 1.92c.1.2.15.35.15.45 0 .18-.12.35-.36.51-.82.54-1.75.93-2.79 1.17-1.04.24-2.23.36-3.57.36Zm2.31-9.36c0-.76-.22-1.35-.66-1.77-.44-.42-1.1-.63-1.98-.63-.88 0-1.55.22-2.01.66-.46.42-.69 1-.69 1.74h5.34Zm14.813 9.36c-1.92 0-3.39-.52-4.41-1.56-1.02-1.06-1.53-2.53-1.53-4.41v-4.74h-1.23c-.56 0-.94-.11-1.14-.33-.18-.22-.27-.6-.27-1.14V14.1c0-.54.09-.92.27-1.14.2-.24.58-.36 1.14-.36h1.23v-.75c0-.48.11-.96.33-1.44.22-.5.54-1.1.96-1.8.2-.34.38-.56.54-.66.18-.1.49-.15.93-.15h1.77c.56 0 .95.12 1.17.36.24.24.36.62.36 1.14v3.3h2.4c.56 0 .93.12 1.11.36.2.22.3.6.3 1.14v1.17c0 .54-.1.92-.3 1.14-.18.22-.55.33-1.11.33h-2.4v4.62c0 .62.12 1.08.36 1.38.24.28.63.42 1.17.42.34 0 .61-.04.81-.12.22-.08.48-.22.78-.42.16-.1.31-.15.45-.15.2 0 .37.12.51.36l1.26 2.16c.14.24.21.43.21.57 0 .18-.12.35-.36.51-.68.46-1.45.8-2.31 1.02-.84.24-1.84.36-3 .36Zm6.48-14.01c-.52 0-.78-.2-.78-.6 0-.06.02-.19.06-.39l1.53-5.19c.14-.44.31-.73.51-.87.2-.16.53-.24.99-.24h2.4c.4 0 .68.05.84.15.18.1.27.27.27.51 0 .18-.07.46-.21.84l-2.16 5.1c-.1.22-.24.39-.42.51s-.43.18-.75.18h-2.28Zm14.749 14.01c-2.82 0-5.15-.52-6.99-1.56-.38-.24-.57-.45-.57-.63 0-.1.05-.25.15-.45l1.26-2.25c.12-.24.27-.36.45-.36.12 0 .29.06.51.18.56.3 1.27.58 2.13.84.88.24 1.66.36 2.34.36.64 0 1.1-.06 1.38-.18.28-.14.42-.36.42-.66 0-.28-.2-.51-.6-.69-.38-.2-1.08-.45-2.1-.75l-.66-.18c-1.66-.5-2.86-1.07-3.6-1.71-.74-.64-1.11-1.55-1.11-2.73 0-1.46.63-2.58 1.89-3.36 1.26-.78 2.95-1.17 5.07-1.17 1.32 0 2.47.12 3.45.36s1.92.6 2.82 1.08c.36.2.54.42.54.66 0 .14-.06.32-.18.54l-1.23 1.95c-.14.22-.28.33-.42.33-.12 0-.28-.06-.48-.18-.48-.26-1.04-.47-1.68-.63-.64-.16-1.26-.24-1.86-.24-1.38 0-2.07.3-2.07.9 0 .28.22.52.66.72.46.18 1.16.38 2.1.6.22.06.52.14.9.24.4.1.73.2.99.3.96.34 1.7.69 2.22 1.05.52.34.89.75 1.11 1.23.22.46.33 1.05.33 1.77 0 .86-.26 1.64-.78 2.34-.52.68-1.32 1.23-2.4 1.65-1.08.42-2.41.63-3.99.63Zm20.615-.45c-.58 0-.99-.12-1.23-.36-.22-.24-.33-.62-.33-1.14V8.13c0-.52.12-.9.36-1.14.24-.26.64-.39 1.2-.39h7.35c2.8 0 4.86.59 6.18 1.77 1.32 1.18 1.98 2.94 1.98 5.28 0 2.32-.66 4.07-1.98 5.25-1.3 1.16-3.36 1.74-6.18 1.74h-2.85v4.86c0 .52-.12.9-.36 1.14-.24.24-.65.36-1.23.36h-2.91Zm6.87-10.71c.82 0 1.45-.22 1.89-.66.46-.44.69-1.1.69-1.98 0-.9-.23-1.57-.69-2.01-.44-.44-1.07-.66-1.89-.66h-2.37v5.31h2.37Zm14.085 11.16c-1.88 0-3.39-.6-4.53-1.8-1.12-1.22-1.68-2.93-1.68-5.13 0-1.68.38-3.15 1.14-4.41.78-1.26 1.87-2.23 3.27-2.91 1.42-.7 3.05-1.05 4.89-1.05 1.52 0 2.86.17 4.02.51 1.18.32 2.26.79 3.24 1.41v12c0 .38-.07.63-.21.75-.14.12-.42.18-.84.18h-3.06c-.22 0-.39-.03-.51-.09a.906.906 0 0 1-.3-.36l-.39-.9c-.58.62-1.28 1.07-2.1 1.35-.8.3-1.78.45-2.94.45Zm2.25-4.08c.78 0 1.39-.19 1.83-.57.44-.38.66-.92.66-1.62V16.5c-.38-.18-.86-.27-1.44-.27-1.06 0-1.91.37-2.55 1.11-.62.74-.93 1.78-.93 3.12 0 1.94.81 2.91 2.43 2.91ZM166.86 27c-.3 0-.53-.05-.69-.15-.16-.1-.28-.3-.36-.6l-3.87-12.96a.952.952 0 0 1-.06-.27c0-.28.2-.42.6-.42h3.96c.26 0 .45.05.57.15.12.08.2.22.24.42l1.62 6.81 2.04-5.49c.1-.24.2-.4.3-.48.12-.1.32-.15.6-.15h1.89c.28 0 .47.05.57.15.12.08.23.24.33.48l2.01 5.49 1.65-6.81c.06-.2.14-.34.24-.42.1-.1.28-.15.54-.15h3.99c.4 0 .6.14.6.42 0 .06-.02.15-.06.27l-3.9 12.96c-.08.3-.2.5-.36.6-.14.1-.36.15-.66.15h-2.94c-.28 0-.49-.05-.63-.15-.14-.12-.26-.32-.36-.6l-1.98-5.43-1.98 5.43c-.08.28-.2.48-.36.6-.14.1-.35.15-.63.15h-2.91Z" fill="#DC6A30"/><defs><clipPath id="a"><path fill="#fff" d="M.061 0h32L32 32H0z"/></clipPath></defs></svg>