<svg width="33" height="32" viewBox="0 0 33 32" fill="none" xmlns="http://www.w3.org/2000/svg">
<g clip-path="url(#clip0_2_1981)">
<path d="M10.3184 31.9998C9.8491 31.9153 9.37424 31.8558 8.91044 31.7408C7.73726 31.4496 6.68109 30.9377 5.87848 30.0008C5.26637 29.2877 5.01442 28.4635 5.10074 27.5164C5.2791 25.4939 6.07051 23.696 7.11369 21.9959C8.11292 20.3671 9.34653 18.9308 10.8676 17.7622C12.4733 16.5286 14.2316 15.6762 16.3168 15.7584C17.7345 15.814 19.0294 16.293 20.1985 17.0695C23.4558 19.2329 25.5965 22.2354 26.6613 25.9831C26.8702 26.7344 26.9505 27.5159 26.8987 28.2944C26.8183 29.4443 26.0827 30.2465 25.152 30.8625C24.1953 31.4966 23.1266 31.8167 21.9933 31.9404C21.8916 31.9513 21.7914 31.9795 21.6904 31.9998H20.4384C19.4334 31.7509 18.4268 31.5067 17.4233 31.2516C16.6037 31.0434 15.7806 30.9847 14.9516 31.1733C13.8204 31.4355 12.6946 31.7212 11.5665 31.9975L10.3184 31.9998Z" fill="#DC6A30"/>
<path d="M32.0304 15.6222C31.8469 16.2366 31.7205 16.8745 31.4674 17.4592C30.863 18.8572 29.9063 19.9459 28.4381 20.4805C26.4985 21.185 24.7705 20.1338 24.4731 18.0901C24.1325 15.7505 25.8187 12.9046 28.0277 12.0898C29.9156 11.3939 31.643 12.4029 31.9733 14.3886C31.9886 14.4472 32.0084 14.5045 32.0325 14.56L32.0304 15.6222Z" fill="#DC6A30"/>
<path d="M11.568 32C12.6961 31.7245 13.8219 31.438 14.9531 31.1758C15.7798 30.9848 16.6052 31.0435 17.4248 31.2541C18.4283 31.5093 19.4349 31.7535 20.4399 32.0024L11.568 32Z" fill="#DC6A30"/>
<path d="M15.125 6.78917C15.0856 8.95104 14.7584 10.6409 13.8165 12.1665C13.2153 13.1417 12.4336 13.9291 11.2969 14.2391C9.85632 14.6305 8.67731 14.1154 7.70434 13.065C6.65014 11.9293 6.13872 10.5306 5.89824 9.02697C5.5495 6.84788 5.75621 4.73297 6.74128 2.72764C7.13405 1.93318 7.65729 1.24047 8.37898 0.710569C9.78944 -0.323404 11.517 -0.223998 12.8098 0.956344C13.9479 1.99501 14.5431 3.33033 14.8518 4.80106C15.0154 5.583 15.0717 6.38529 15.125 6.78917Z" fill="#DC6A30"/>
<path d="M26.3718 6.79424C26.3317 8.95455 26.0045 10.6444 25.0618 12.17C24.4598 13.1444 23.6781 13.9311 22.5406 14.2403C21.0993 14.6316 19.9242 14.1111 18.948 13.0662C17.9719 12.0212 17.4572 10.718 17.1954 9.33417C16.8081 7.267 16.934 5.23193 17.7406 3.26574C18.1549 2.2576 18.7364 1.36686 19.629 0.711725C21.0394 -0.323031 22.7662 -0.220495 24.059 0.960629C25.1963 2.00008 25.7908 3.33619 26.0994 4.80692C26.2622 5.58651 26.3202 6.38879 26.3718 6.79424Z" fill="#DC6A30"/>
<path d="M0.0320848 15.2343C0.0743394 14.0062 0.357139 13.0208 1.3005 12.3703C2.39743 11.6166 3.5616 11.7097 4.62688 12.3703C6.691 13.6454 7.75082 15.5184 7.58961 17.9832C7.50008 19.3866 6.5371 20.4715 5.25266 20.6656C4.18347 20.8268 3.23028 20.4738 2.40209 19.821C0.883223 18.6188 0.155461 17.0064 0.0320848 15.2343Z" fill="#DC6A30"/>
</g>
<defs>
<clipPath id="clip0_2_1981">
<rect width="32" height="32" fill="white" transform="matrix(1 0 -0.00191149 0.999998 0.0610352 0)"/>
</clipPath>
</defs>
</svg>
